<svg width="433" height="165" viewBox="0 0 433 165" fill="none" xmlns="http://www.w3.org/2000/svg">
<path d="M229.175 164.986H179.939V0H229.175V164.986Z" fill="black"/>
<path d="M152.13 49.1973L64.3986 49.2056C56.049 49.2064 49.3097 56.0251 49.3599 64.3746C49.5614 97.9069 49.2437 131.453 49.2305 164.982H0L0.0234375 50.6992C0.0280722 22.7149 22.7151 0.0281851 50.7041 0.0234375L152.13 0V49.1973Z" fill="black"/>
<path d="M432.304 46.3857L346.858 46.3945C327.824 46.4502 305.121 52.7895 300.895 74.3965C298.359 87.3505 301.655 103.014 312.996 110.828C322.729 117.53 332.576 119.124 344.57 119.676L381.35 119.683C386.303 119.684 390.317 115.802 390.318 110.85C390.32 105.897 386.309 101.743 381.356 101.743H338.304V63.2432H432.304L432.104 164.978L343.234 164.968C322.809 164.968 305.827 162.145 288.071 152.115C270.779 142.35 259.233 125.559 253.848 106.357C249.588 91.1741 249.496 75.0822 253.523 59.834C258.371 41.4668 269.717 26.0333 285.716 15.9111C304.208 4.21323 320.654 0.398597 342.455 0H432.304V46.3857Z" fill="black"/>
</svg>
